# xmcd
#
# Track frame offsets: 
#        150
#        13209
#        28157
#        45836
#        63821
#        80323
#        94575
#        114776
#        143339
#        157152
#        189090
#        218635
#        237073
#        253818
#        275311
#
# Disc length: 3895 seconds
#
# Revision: 0
# Processed by: cddbd v1.5.1PL0 Copyright (c) Steve Scherf et al.
# Submitted via: ExactAudioCopy v0.95b3
#
DISCID=b20f350f
DTITLE=Weezil Malone and the King Size Blues Band - Readjust Your Atti
DTITLE=tude
DYEAR=2002
DGENRE=Blues
TTITLE0=Readjust Your Attitude (Bonus)
TTITLE1=Shake Hands with the Devil
TTITLE2=Some Day Some Way
TTITLE3=Macatawa Bayou
TTITLE4=Do Me a Favor
TTITLE5=Dilly Dally Man
TTITLE6=Blues After Midnight
TTITLE7=Waste No Tears
TTITLE8=Tears of a Man
TTITLE9=All Mixed Up
TTITLE10=Got to Get a Little
TTITLE11=I Like To Fool Around
TTITLE12=Looeeze
TTITLE13=Readjust Your Attitude
TTITLE14=Tree Top
EXTD=
EXTT0=
EXTT1=
EXTT2=
EXTT3=
EXTT4=
EXTT5=
EXTT6=
EXTT7=
EXTT8=
EXTT9=
EXTT10=
EXTT11=
EXTT12=
EXTT13=
EXTT14=
PLAYORDER=
